<svg version="1.0" xmlns="http://www.w3.org/2000/svg" viewBox="0 0 32 32"><path d="M.9 4.2c-.2 3.9.3 6.3 1.4 7C3.7 12 6 10.3 6 8.4 6 7.3 8.2 7 16 7s10 .3 10 1.4c0 1.9 2.3 3.6 3.7 2.8 1.1-.7 1.6-3.1 1.4-7C31 1.3 27 1.1 26.3 4c-.5 1.8-1.4 2-10.3 2S6.2 5.8 5.7 4C5 1.1 1 1.3.9 4.2zM4 7.1c0 2.4-.4 3.8-1 3.4-.5-.3-1-2.2-1-4.1C2 4.5 2.5 3 3 3c.6 0 1 1.8 1 4.1zm26-.7c0 1.9-.4 3.8-1 4.1-.6.4-1-1-1-3.4 0-2.3.5-4.1 1-4.1.6 0 1 1.5 1 3.4z"/><path d="M7 10.9c0 2.4.6 3.4 2.6 4.3 2.2 1 2.5 1.6 1.9 4.2-1.2 5.5-1 9.9.3 10.3.7.3 1.2-.4 1.2-1.5s.7-2.5 1.5-3.2c1.9-1.6 4.5.3 4.5 3.2 0 2.7 2.4 1.7 2.8-1.2.2-1.2-.5-3.8-1.5-5.7-1.9-3.7-1.9-3.7 3.2-6.8 1.1-.7 1.6-2 1.3-3.7l-.3-2.6-2.5 2c-2.4 2.1-2.4 2.1-.2 1.5 3.1-.7 2.8.8-.8 3.3-3.3 2.3-3.9 5-1.5 7 .8.7 1.5 2.4 1.5 3.9l-.1 2.6-1.5-2.8c-1.9-3.5-5.3-3.3-7.1.3L11 28.5v-2.7c0-1.5.5-3 1-3.3 2-1.2 1.1-6.2-1.5-7.9C9.1 13.7 8 12.5 8 12c0-1.2 2.9-.2 5.2 1.7 2.5 2.2 5.3 1.2 5.3-1.7 0-3-3.3-4-5-1.6-1.1 1.5-1.5 1.4-3.9-.5L7 7.9v3zm10.6.2c1 1.7-1.3 3.6-2.7 2.2-1.2-1.2-.4-3.3 1.1-3.3.5 0 1.2.5 1.6 1.1z"/></svg>
