<?xml version="1.0" encoding="utf-8"?><svg viewBox="0 0 2000 2000" xmlns="http://www.w3.org/2000/svg" xmlns:xlink="http://www.w3.org/1999/xlink"><style>:root>svg{display:none}:root>svg:target{display:block}</style><svg viewBox="0 0 42 42" id="ruble" xmlns="http://www.w3.org/2000/svg"><path fill-rule="evenodd" clip-rule="evenodd" d="M24.5 6H16v11h8.5a5.5 5.5 0 100-11zM10 0v23h14.5a11.5 11.5 0 100-23H10z" fill="#102654"/><path fill-rule="evenodd" clip-rule="evenodd" d="M6 17h6v6H6v-6z" fill="#102654"/><path fill-rule="evenodd" clip-rule="evenodd" d="M9.66 28.32V18h6v10.32H27v6H15.66V42h-6v-7.68H6v-6h3.66z" fill="#102654"/></svg><svg viewBox="0 0 34 34" id="slider-arrow" xmlns="http://www.w3.org/2000/svg"><path d="M17 1L1 17l16 16" stroke="#AFAFAF"/></svg><svg viewBox="0 0 17 17" id="social-ok" xmlns="http://www.w3.org/2000/svg"><path d="M8.41 3.38c.9 0 1.63.75 1.63 1.68 0 .93-.73 1.68-1.63 1.68-.9 0-1.62-.75-1.62-1.68 0-.93.73-1.68 1.62-1.68zm0 5.74a4 4 0 003.94-4.06A4 4 0 008.41 1a4 4 0 00-3.93 4.06 4 4 0 003.93 4.06zm1.6 3.31a7.3 7.3 0 002.28-.97c.54-.35.7-1.09.36-1.64a1.13 1.13 0 00-1.59-.38 4.87 4.87 0 01-5.3 0 1.13 1.13 0 00-1.58.38c-.34.55-.18 1.29.36 1.64a7.3 7.3 0 002.28.97l-2.2 2.27a1.22 1.22 0 000 1.69 1.14 1.14 0 001.64 0l2.15-2.23 2.17 2.23c.45.46 1.17.46 1.63 0 .45-.47.45-1.22 0-1.69L10 12.43z" fill="#030A1A"/></svg><svg viewBox="0 0 15 15" id="social-reddit" xmlns="http://www.w3.org/2000/svg"><path d="M8.85.56c-.44 0-.86.22-1.13.55-.27.32-.42.72-.52 1.14a9.43 9.43 0 00-.24 2.1 7.32 7.32 0 00-3.33 1.02 2 2 0 00-1.28-.5c-.5 0-.98.23-1.33.67-.68.85-.6 2.24.18 3.06-.05.26-.08.52-.08.78 0 2.8 2.85 5.06 6.38 5.06s6.38-2.26 6.38-5.06c0-.26-.03-.52-.08-.78.78-.82.86-2.21.18-3.06a1.7 1.7 0 00-1.33-.67 2 2 0 00-1.28.5 7.31 7.31 0 00-3.31-1.03c.01-.62.06-1.26.18-1.75.08-.3.17-.52.27-.65.1-.12.17-.17.34-.17.36 0 .4.12.63.4.1.15.23.32.43.5.2.17.5.32.83.32V1.77c-.09 0-.1 0-.17-.05-.06-.06-.14-.18-.27-.35-.25-.32-.73-.81-1.45-.81zm3.51.11c-.84 0-1.52.77-1.52 1.71 0 .95.68 1.71 1.52 1.71s1.52-.76 1.52-1.7c0-.95-.68-1.72-1.52-1.72zm0 .6c.54 0 .98.5.98 1.11 0 .61-.44 1.1-.98 1.1s-.98-.49-.98-1.1c0-.6.44-1.1.98-1.1zM7.5 5.3c3 0 5.52 1.88 5.52 4.1 0 2.21-2.53 4.08-5.52 4.08-3 0-5.52-1.87-5.52-4.09C1.98 7.17 4.5 5.3 7.5 5.3zm-5.13.55c.15 0 .3.05.45.12-.54.46-.97 1-1.26 1.6-.2-.47-.15-1.06.1-1.37a.88.88 0 01.7-.35zm10.26 0c.28 0 .53.12.71.35.25.3.3.9.1 1.37-.29-.6-.72-1.14-1.26-1.6.15-.07.3-.11.45-.12zm-7.3 1.53c-.53 0-.97.5-.97 1.1 0 .6.44 1.1.98 1.1s.98-.5.98-1.1c0-.6-.44-1.1-.98-1.1zm4.33 0c-.54 0-.98.5-.98 1.1 0 .6.44 1.1.98 1.1s.98-.5.98-1.1c0-.6-.44-1.1-.98-1.1zm-4.84 3.75c.34.8 1.4 1.57 2.68 1.57 1.28 0 2.36-.77 2.7-1.57-.62.45-1.6.76-2.7.76s-2.06-.31-2.68-.77z" fill="#030A1A"/></svg><svg viewBox="0 0 16 16" id="social-wk" xmlns="http://www.w3.org/2000/svg"><path d="M9.17 9.8c.44-.14 1 .95 1.61 1.36.45.32.8.25.8.25l1.6-.02s.85-.06.45-.72c-.03-.06-.23-.5-1.2-1.4-1-.95-.87-.8.35-2.43.74-1 1.03-1.6.94-1.87-.09-.25-.63-.18-.63-.18l-1.81.01c-.18 0-.33.06-.4.24 0 0-.29.77-.67 1.43-.8 1.38-1.13 1.45-1.26 1.37-.3-.2-.23-.8-.23-1.24 0-1.34.2-1.9-.39-2.04-.2-.05-.34-.08-.85-.09-.64 0-1.19 0-1.5.16-.2.1-.36.33-.27.34.12.02.4.07.54.27.18.26.18.83.18.83s.1 1.58-.25 1.77c-.25.14-.58-.14-1.3-1.4-.37-.63-.64-1.35-.64-1.35s-.06-.13-.16-.2a.75.75 0 00-.27-.11H2.09s-.26.02-.36.13c-.08.1 0 .3 0 .3s1.34 3.2 2.87 4.8C6 11.48 7.59 11.4 7.59 11.4h.72s.21-.03.33-.15c.1-.1.1-.32.1-.32s-.02-.97.43-1.12z" fill="#030A1A"/></svg><svg viewBox="0 0 2000 2000" id="sprite" xmlns="http://www.w3.org/2000/svg"/><svg fill="none" viewBox="0 0 100 100" id="video-play" xmlns="http://www.w3.org/2000/svg"><circle cx="50" cy="50" r="49" stroke="url(#gpaint0_linear_15126_24)" stroke-opacity=".2" stroke-width="2"/><circle cx="50" cy="50" r="36" fill="url(#gpaint1_linear_15126_24)"/><path d="M59 49.5l-12.75 7.36V42.14L59 49.5z" fill="#fff"/><defs><linearGradient id="gpaint0_linear_15126_24" x1="19.77" y1="0" x2="105.78" y2="10.64" gradientUnits="userSpaceOnUse"><stop stop-color="#ED0233"/><stop offset="1" stop-color="#003EB7"/></linearGradient><linearGradient id="gpaint1_linear_15126_24" x1="14" y1="49.52" x2="54.19" y2="9.18" gradientUnits="userSpaceOnUse"><stop stop-color="#003D85"/><stop offset=".89" stop-color="#B80027"/></linearGradient></defs></svg></svg>