<?xml version="1.0" encoding="utf-8"?>

<svg xmlns="http://www.w3.org/2000/svg">

  <style>
    :root > svg {
      display:none;
    }
    :root > svg:target {
      display:block;
    }
  </style>

  <svg id="logo" viewBox="0 0 89 21">
    <path d="M.68 6.17c0-1.48.35-2.6 1.06-3.38.71-.8 1.76-1.2 3.15-1.2 1.38 0 2.43.4 3.14 1.2.71.78 1.07 1.9 1.07 3.38v.57H6.4v-.75c0-1.2-.48-1.8-1.43-1.8-.96 0-1.43.6-1.43 1.8 0 .67.19 1.31.57 1.92.38.59.84 1.13 1.38 1.61.55.49 1.1 1 1.66 1.54a6.53 6.53 0 0 1 1.98 4.57c0 1.48-.37 2.61-1.1 3.4-.72.79-1.78 1.18-3.17 1.18-1.38 0-2.44-.4-3.17-1.17-.73-.8-1.1-1.93-1.1-3.4V14.5H3.3v1.3c0 1.18.5 1.77 1.48 1.77 1 0 1.49-.59 1.49-1.77 0-.67-.2-1.3-.58-1.9a7.4 7.4 0 0 0-1.4-1.63l-1.64-1.51a7 7 0 0 1-1.4-1.98 6 6 0 0 1-.57-2.62zM11.15 1.8h2.86v14.04c0 1.18.5 1.77 1.49 1.77.98 0 1.48-.6 1.48-1.77V1.8h2.7v13.86c0 1.47-.36 2.6-1.09 3.4-.73.78-1.78 1.17-3.17 1.17s-2.45-.39-3.17-1.17c-.73-.8-1.1-1.93-1.1-3.4V1.8zm15.23 0c2.84 0 4.26 1.5 4.26 4.5v2.36c0 3-1.42 4.5-4.26 4.5h-1.36V20h-2.86V1.8h4.22zm0 2.6h-1.36v6.16h1.36c.46 0 .81-.13 1.04-.39.24-.26.36-.7.36-1.32V6.12c0-.63-.12-1.07-.36-1.33-.23-.26-.58-.39-1.04-.39zm8.96 0v5.07h3.93v2.6h-3.93v5.33h4.94V20h-7.8V1.8h7.8v2.6h-4.94zM51.47 20h-2.91a7.42 7.42 0 0 1-.26-2.24V14.9c0-.83-.15-1.42-.45-1.76-.29-.37-.77-.55-1.43-.55h-.98V20h-2.86V1.8h4.31c1.48 0 2.55.35 3.23 1.04.67.68 1.01 1.72 1.01 3.15v1.43c0 1.87-.62 3.1-1.87 3.69 1.26.54 1.9 1.83 1.9 3.87v2.81c0 .99.1 1.72.3 2.21zM46.8 4.4h-1.37v5.59h1.12c.57 0 1-.15 1.27-.44.3-.3.44-.8.44-1.48v-1.8c0-1.25-.48-1.87-1.46-1.87zm11.04 8.06v-2.6h4v5.77c0 1.48-.36 2.61-1.09 3.4-.73.79-1.79 1.18-3.17 1.18-1.39 0-2.45-.4-3.17-1.17-.73-.8-1.1-1.93-1.1-3.4V6.16c0-1.48.37-2.6 1.1-3.38.72-.8 1.78-1.2 3.17-1.2 1.38 0 2.44.4 3.17 1.2.73.78 1.1 1.9 1.1 3.38v1.77h-2.71V5.99c0-1.2-.5-1.8-1.48-1.8-1 0-1.49.6-1.49 1.8v9.82c0 1.18.5 1.77 1.49 1.77.98 0 1.48-.59 1.48-1.77v-3.35h-1.3zM66.5 20v-6.03L62.89 1.8h3l2.18 8.3 2.18-8.3h2.73l-3.61 12.17V20H66.5zM78.6 1.8l2.1 12.92L82.66 1.8h3.98V20h-2.7V6.95L81.96 20h-2.7L77.13 7.13V20h-2.5V1.8h3.98z" fill="#fff"/>
  </svg>

</svg>
