<svg xmlns="http://www.w3.org/2000/svg" viewBox="0 0 16 16"><path d="M9.17 9.8c.44-.14 1 .95 1.61 1.36.45.32.8.25.8.25l1.6-.02s.85-.06.45-.72c-.03-.06-.23-.5-1.2-1.4-1-.95-.87-.8.35-2.43.74-1 1.03-1.6.94-1.87-.09-.25-.63-.18-.63-.18l-1.81.01c-.18 0-.33.06-.4.24 0 0-.29.77-.67 1.43-.8 1.38-1.13 1.45-1.26 1.37-.3-.2-.23-.8-.23-1.24 0-1.34.2-1.9-.39-2.04-.2-.05-.34-.08-.85-.09-.64 0-1.19 0-1.5.16-.2.1-.36.33-.27.34.12.02.4.07.54.27.18.26.18.83.18.83s.1 1.58-.25 1.77c-.25.14-.58-.14-1.3-1.4-.37-.63-.64-1.35-.64-1.35s-.06-.13-.16-.2a.75.75 0 0 0-.27-.11H2.09s-.26.02-.36.13c-.08.1 0 .3 0 .3s1.34 3.2 2.87 4.8C6 11.48 7.59 11.4 7.59 11.4h.72s.21-.03.33-.15c.1-.1.1-.32.1-.32s-.02-.97.43-1.12z" fill="#030A1A"/></svg>
