<svg xmlns="http://www.w3.org/2000/svg" viewBox="0 0 17 17"><path d="M8.41 3.38c.9 0 1.63.75 1.63 1.68 0 .93-.73 1.68-1.63 1.68-.9 0-1.62-.75-1.62-1.68 0-.93.73-1.68 1.62-1.68zm0 5.74a4 4 0 0 0 3.94-4.06A4 4 0 0 0 8.41 1a4 4 0 0 0-3.93 4.06 4 4 0 0 0 3.93 4.06zm1.6 3.31a7.3 7.3 0 0 0 2.28-.97c.54-.35.7-1.09.36-1.64a1.13 1.13 0 0 0-1.59-.38 4.87 4.87 0 0 1-5.3 0 1.13 1.13 0 0 0-1.58.38c-.34.55-.18 1.29.36 1.64a7.3 7.3 0 0 0 2.28.97l-2.2 2.27a1.22 1.22 0 0 0 0 1.69 1.14 1.14 0 0 0 1.64 0l2.15-2.23 2.17 2.23c.45.46 1.17.46 1.63 0 .45-.47.45-1.22 0-1.69L10 12.43z" fill="#030A1A"/></svg>
